<svg xmlns="http://www.w3.org/2000/svg" xmlns:xlink="http://www.w3.org/1999/xlink" width="500" zoomAndPan="magnify" viewBox="0 0 375 112.499997" height="150" preserveAspectRatio="xMidYMid meet" version="1.0"><defs><g/></defs><g fill="#37548e" fill-opacity="1"><g transform="translate(167.686495, 58.85068)"><g><path d="M 16.15625 -15.03125 L 23.328125 -15.5 L 23.328125 -12.671875 L 16.59375 -12.25 L 18.375 -0.5625 L 19.859375 -0.5625 L 20.15625 -1.875 L 23.28125 -1.875 L 22.484375 2.390625 L 14.71875 2.390625 L 12.59375 -12.015625 L 7.5625 -11.6875 L 7.5625 -14.515625 L 12.171875 -14.796875 L 11.46875 -19.578125 L 15.46875 -19.578125 Z M 4.65625 -19.5 L 8.546875 -19.5 L 6.984375 -14.84375 L 6.984375 2.4375 L 3.375 2.4375 L 3.375 -8.546875 L 1.125 -8.546875 Z M 20.921875 -19.625 L 22.65625 -16.25 L 18.71875 -16.25 L 17.078125 -19.625 Z M 20.921875 -19.625 "/></g></g></g><g fill="#37548e" fill-opacity="1"><g transform="translate(198.018489, 58.85068)"><g><path d="M 9.9375 -18.9375 L 9.9375 -16.296875 L 6.5625 -16.296875 L 5.5625 -12.984375 L 10 -12.984375 L 10 1.6875 L 2.390625 1.6875 L 2.390625 -8.03125 L 0.53125 -8.03125 L 2.90625 -16.296875 L 1.03125 -16.296875 L 1.03125 -18.9375 Z M 19.28125 -7.25 L 10.71875 -7.25 L 12.171875 -15.5 L 15.890625 -15.5 L 14.90625 -9.734375 L 17.640625 -9.734375 L 18.109375 -16.671875 L 10.953125 -16.671875 L 10.953125 -19.25 L 21.9375 -19.25 L 21.234375 -9.734375 L 22.84375 -9.734375 L 22.84375 0.578125 L 19.625 2.984375 L 17.53125 0.6875 L 19.28125 -0.65625 Z M 18.53125 -4.859375 L 18.53125 -2.390625 L 10.6875 -2.390625 L 10.6875 -4.859375 Z M 6.8125 -10.71875 L 5.515625 -10.71875 L 5.515625 -0.8125 L 6.8125 -0.8125 Z M 6.8125 -10.71875 "/></g></g></g><g fill="#37548e" fill-opacity="1"><g transform="translate(228.350484, 58.85068)"><g><path d="M 8.390625 2.46875 L 9.515625 -19.59375 L 12.6875 -19.59375 L 11.859375 2.46875 Z M 19.28125 2.390625 L 19.28125 -19.546875 L 22.578125 -19.546875 L 22.578125 2.390625 Z M 14.328125 2.046875 L 14.328125 -19.3125 L 17.546875 -19.3125 L 17.546875 2.046875 Z M 8.28125 -2.375 L 8.28125 0.53125 L 3.203125 2.296875 L 3.203125 -10.546875 L 1.65625 -10.546875 L 1.65625 -13.25 L 6.828125 -13.25 L 6.828125 -1.828125 Z M 5.875 -19.578125 L 6.78125 -15.46875 L 2.859375 -15.46875 L 1.921875 -19.578125 Z M 5.875 -19.578125 "/></g></g></g><g fill="#37548e" fill-opacity="1"><g transform="translate(258.682478, 58.85068)"><g><path d="M 1.203125 -12.640625 L 4.3125 -19.3125 L 7.953125 -19.3125 L 4.78125 -12.640625 L 5.390625 -12.671875 L 6.4375 -14.6875 L 10.078125 -14.6875 L 9.71875 -14.015625 L 10.84375 -14.015625 L 11.28125 -15.421875 L 9.171875 -15.421875 L 9.171875 -18.15625 L 12.078125 -18.15625 L 12.46875 -19.453125 L 16.078125 -19.453125 L 15.6875 -18.15625 L 22.71875 -18.15625 L 22.71875 -15.421875 L 14.84375 -15.421875 L 14.40625 -14.015625 L 18.28125 -14.015625 L 18.28125 -9.609375 L 22.453125 -9.609375 L 22.453125 -6.90625 L 18.28125 -6.90625 L 18.28125 0.734375 L 14.6875 2.828125 L 12.765625 0.1875 L 14.859375 -1 L 14.859375 -6.90625 L 9.46875 -6.90625 L 9.46875 -9.375 L 10.109375 -11.515625 L 9.125 -11.515625 L 9.125 -12.859375 L 5.203125 -5.375 L 8.671875 -5.59375 L 8.671875 -3.171875 L 1.640625 -2.6875 L 1.640625 -5.375 L 4.09375 -10.125 L 1.203125 -9.953125 Z M 18.96875 -5.828125 L 22.109375 -5.828125 L 23.28125 2.171875 L 20.09375 2.171875 Z M 12.390625 1.75 L 9.109375 1.75 L 10.734375 -5.859375 L 14.015625 -5.859375 Z M 1.4375 2.125 L 1.4375 -0.75 L 8.78125 -1.484375 L 8.78125 1.390625 Z M 13.640625 -11.515625 L 13.0625 -9.609375 L 14.859375 -9.609375 L 14.859375 -11.515625 Z M 13.640625 -11.515625 "/></g></g></g><g fill="#37548e" fill-opacity="1"><g transform="translate(289.014472, 58.85068)"><g><path d="M 6.546875 2.203125 L 6.546875 2.53125 L 2.828125 2.53125 L 2.828125 -9.5 L 21.40625 -9.5 L 21.40625 -4.25 L 6.546875 -4.25 L 6.546875 -3.03125 L 22.140625 -3.03125 L 22.140625 2.203125 Z M 3.140625 -19.59375 L 6.8125 -19.59375 L 6.390625 -18.46875 L 12.34375 -18.46875 L 12.34375 -16.375 L 10.078125 -16.375 L 10.5 -14.578125 L 12.171875 -14.578125 L 13.953125 -19.59375 L 17.625 -19.59375 L 17.203125 -18.46875 L 22.796875 -18.46875 L 22.796875 -16.375 L 20.578125 -16.375 L 21.109375 -14.109375 L 17.9375 -14.109375 L 17.40625 -16.375 L 16.46875 -16.375 L 15.671875 -14.109375 L 13.90625 -14.109375 L 14.15625 -13.40625 L 22.75 -13.40625 L 22.75 -9.9375 L 18.984375 -9.9375 L 18.984375 -11.25 L 5.421875 -11.25 L 5.421875 -9.9375 L 1.65625 -9.9375 L 1.65625 -13.40625 L 9.953125 -13.40625 L 9.71875 -14.109375 L 7.4375 -14.109375 L 6.90625 -16.375 L 5.65625 -16.375 L 4.859375 -14.109375 L 1.203125 -14.109375 Z M 6.546875 -1.09375 L 6.546875 0.21875 L 18.40625 0.21875 L 18.40625 -1.09375 Z M 6.546875 -6.21875 L 17.6875 -6.21875 L 17.6875 -7.5625 L 6.546875 -7.5625 Z M 6.546875 -6.21875 "/></g></g></g><g fill="#37548e" fill-opacity="1"><g transform="translate(319.346466, 58.85068)"><g><path d="M 3.875 -13.8125 L 1.34375 -13.8125 L 1.34375 -18.328125 L 9.890625 -18.328125 L 9.296875 -19.671875 L 13.953125 -19.671875 L 14.578125 -18.328125 L 22.9375 -18.328125 L 22.9375 -13.8125 L 20.53125 -13.8125 L 20.53125 -11.84375 L 11.8125 -11.84375 L 10.296875 -10.6875 L 15.375 -10.6875 L 15.375 -6.71875 L 18.578125 -10.90625 L 22.484375 -10.90625 L 19.46875 -6.6875 L 15.375 -6.6875 L 15.375 0.3125 L 11.890625 2.78125 L 9.546875 0.421875 L 11.421875 -0.8125 L 11.421875 -2.046875 L 6.59375 1.78125 L 1.21875 1.78125 L 9.171875 -3.984375 L 11.421875 -3.984375 L 11.421875 -6.78125 L 6.296875 -3.375 L 0.96875 -3.375 L 7.03125 -7.25 L 11.421875 -7.25 L 11.421875 -8.34375 L 7.203125 -8.34375 L 6.25 -7.609375 L 0.859375 -7.609375 L 6.484375 -11.84375 L 3.875 -11.84375 Z M 22.9375 1.78125 L 18.859375 1.78125 L 15.46875 -5.78125 L 19.5 -5.78125 Z M 5.421875 -14.28125 L 18.96875 -14.28125 L 18.96875 -15.84375 L 5.421875 -15.84375 Z M 5.421875 -14.28125 "/></g></g></g><g fill="#479ece" fill-opacity="1"><g transform="translate(21.828948, 78.496373)"><g><path d="M 28.359375 -40.921875 C 34.316406 -40.921875 38.6875 -39.425781 41.46875 -36.4375 C 44.257812 -33.457031 45.015625 -29.203125 43.734375 -23.671875 L 31.390625 -23.671875 C 31.941406 -26.015625 31.757812 -27.863281 30.84375 -29.21875 C 29.925781 -30.582031 28.335938 -31.265625 26.078125 -31.265625 C 25.722656 -31.265625 25.445312 -31.25 25.25 -31.21875 L 27.484375 -40.921875 Z M 16.3125 -21.984375 L 15.5 -18.234375 L 11.28125 -0.171875 C 3.019531 -2.546875 0.15625 -9.1875 2.6875 -20.09375 C 5.226562 -31.007812 11.171875 -37.660156 20.515625 -40.046875 Z M 20.109375 -8.9375 L 20.8125 -8.9375 C 23.300781 -8.9375 25.332031 -9.578125 26.90625 -10.859375 C 28.488281 -12.148438 29.554688 -13.96875 30.109375 -16.3125 L 42.03125 -16.3125 C 40.75 -10.8125 38.085938 -6.597656 34.046875 -3.671875 C 30.015625 -0.753906 24.921875 0.703125 18.765625 0.703125 L 17.890625 0.703125 Z M 20.109375 -8.9375 "/></g></g></g><g fill="#409eff" fill-opacity="1"><g transform="translate(67.298793, 78.496373)"><g><path d="M 45.25 -40.21875 L 42.90625 -29.921875 L 36.53125 -29.921875 L 38.875 -40.21875 Z M 29.75 -29.921875 L 22.859375 0 L 9.9375 0 L 16.828125 -29.921875 L 3.625 -29.921875 L 5.96875 -40.21875 L 32.09375 -40.21875 Z M 29.75 -29.921875 "/></g></g></g><g fill="#409eff" fill-opacity="1"><g transform="translate(109.502358, 78.496373)"><g><path d="M 27.9375 -40.859375 C 32.539062 -40.628906 36.054688 -39.46875 38.484375 -37.375 C 40.921875 -35.289062 41.734375 -32.34375 40.921875 -28.53125 L 40.734375 -27.828125 L 28.640625 -27.828125 L 28.703125 -28.0625 C 28.859375 -28.53125 28.90625 -28.976562 28.84375 -29.40625 C 28.789062 -29.832031 28.65625 -30.21875 28.4375 -30.5625 C 28.21875 -30.914062 27.894531 -31.21875 27.46875 -31.46875 C 27.039062 -31.726562 26.515625 -31.914062 25.890625 -32.03125 Z M 21.109375 -40.5625 L 18.53125 -29.515625 C 18.375 -28.816406 18.578125 -28.210938 19.140625 -27.703125 C 19.703125 -27.203125 20.5 -26.8125 21.53125 -26.53125 C 22.570312 -26.257812 23.753906 -25.96875 25.078125 -25.65625 C 26.398438 -25.34375 27.769531 -25.039062 29.1875 -24.75 C 30.613281 -24.457031 31.957031 -24.007812 33.21875 -23.40625 C 34.488281 -22.800781 35.59375 -22.097656 36.53125 -21.296875 C 37.46875 -20.503906 38.128906 -19.425781 38.515625 -18.0625 C 38.910156 -16.695312 38.910156 -15.117188 38.515625 -13.328125 C 37.585938 -9.273438 35.691406 -6.117188 32.828125 -3.859375 C 29.960938 -1.597656 26.40625 -0.175781 22.15625 0.40625 L 24.84375 -11.21875 C 25 -11.882812 24.789062 -12.457031 24.21875 -12.9375 C 23.65625 -13.425781 22.847656 -13.804688 21.796875 -14.078125 C 20.742188 -14.359375 19.546875 -14.65625 18.203125 -14.96875 C 16.859375 -15.28125 15.472656 -15.597656 14.046875 -15.921875 C 12.628906 -16.253906 11.285156 -16.734375 10.015625 -17.359375 C 8.753906 -17.984375 7.664062 -18.742188 6.75 -19.640625 C 5.832031 -20.535156 5.195312 -21.679688 4.84375 -23.078125 C 4.5 -24.484375 4.539062 -26.144531 4.96875 -28.0625 C 5.820312 -31.71875 7.691406 -34.566406 10.578125 -36.609375 C 13.460938 -38.660156 16.972656 -39.976562 21.109375 -40.5625 Z M 17.421875 -8.53125 L 15.3125 0.640625 C 13.5625 0.566406 11.984375 0.421875 10.578125 0.203125 C 9.171875 -0.00390625 7.84375 -0.34375 6.59375 -0.8125 C 5.351562 -1.28125 4.3125 -1.875 3.46875 -2.59375 C 2.632812 -3.320312 1.9375 -4.203125 1.375 -5.234375 C 0.8125 -6.265625 0.53125 -7.472656 0.53125 -8.859375 C 0.53125 -10.242188 0.6875 -11.832031 1 -13.625 L 13.203125 -13.625 C 12.859375 -12.332031 12.847656 -11.316406 13.171875 -10.578125 C 13.503906 -9.835938 14.003906 -9.332031 14.671875 -9.0625 C 15.335938 -8.789062 16.253906 -8.613281 17.421875 -8.53125 Z M 17.421875 -8.53125 "/></g></g></g><g fill="#37548e" fill-opacity="1"><g transform="translate(168.801449, 76.015146)"><g><path d="M 5.5 -1.875 C 5.5 -1.875 5.988281 -1.875 6.96875 -1.875 C 6.707031 -1.257812 6.296875 -0.769531 5.734375 -0.40625 C 5.171875 -0.0507812 4.546875 0.125 3.859375 0.125 C 3.535156 0.125 3.21875 0.0820312 2.90625 0 C 2.601562 -0.0820312 2.320312 -0.195312 2.0625 -0.34375 C 1.8125 -0.5 1.578125 -0.679688 1.359375 -0.890625 C 1.140625 -1.109375 0.953125 -1.347656 0.796875 -1.609375 C 0.648438 -1.867188 0.535156 -2.148438 0.453125 -2.453125 C 0.367188 -2.753906 0.328125 -3.066406 0.328125 -3.390625 C 0.328125 -3.847656 0.414062 -4.289062 0.59375 -4.71875 C 0.78125 -5.144531 1.023438 -5.507812 1.328125 -5.8125 C 1.640625 -6.125 2.007812 -6.375 2.4375 -6.5625 C 2.863281 -6.75 3.3125 -6.84375 3.78125 -6.84375 C 4.207031 -6.84375 4.613281 -6.769531 5 -6.625 C 5.394531 -6.488281 5.75 -6.285156 6.0625 -6.015625 C 6.28125 -5.835938 6.453125 -5.660156 6.578125 -5.484375 C 6.710938 -5.304688 6.84375 -5.078125 6.96875 -4.796875 L 5.578125 -4.796875 C 5.347656 -5.085938 5.09375 -5.300781 4.8125 -5.4375 C 4.53125 -5.570312 4.195312 -5.640625 3.8125 -5.640625 C 3.101562 -5.640625 2.546875 -5.394531 2.140625 -4.90625 C 1.960938 -4.707031 1.820312 -4.46875 1.71875 -4.1875 C 1.625 -3.914062 1.578125 -3.644531 1.578125 -3.375 C 1.578125 -2.957031 1.675781 -2.570312 1.875 -2.21875 C 2.082031 -1.875 2.359375 -1.597656 2.703125 -1.390625 C 3.046875 -1.179688 3.425781 -1.078125 3.84375 -1.078125 C 4.164062 -1.078125 4.453125 -1.140625 4.703125 -1.265625 C 4.960938 -1.390625 5.226562 -1.59375 5.5 -1.875 Z M 5.5 -1.875 "/></g></g></g><g fill="#37548e" fill-opacity="1"><g transform="translate(178.294399, 76.015146)"><g><path d="M 2.953125 -5.15625 C 3.429688 -5.15625 3.875 -5.035156 4.28125 -4.796875 C 4.695312 -4.554688 5.019531 -4.234375 5.25 -3.828125 C 5.488281 -3.421875 5.609375 -2.984375 5.609375 -2.515625 C 5.609375 -2.035156 5.488281 -1.59375 5.25 -1.1875 C 5.007812 -0.789062 4.679688 -0.472656 4.265625 -0.234375 C 3.859375 0.00390625 3.414062 0.125 2.9375 0.125 C 2.457031 0.125 2.007812 0.00390625 1.59375 -0.234375 C 1.175781 -0.472656 0.847656 -0.789062 0.609375 -1.1875 C 0.367188 -1.59375 0.25 -2.035156 0.25 -2.515625 C 0.25 -2.867188 0.316406 -3.207031 0.453125 -3.53125 C 0.597656 -3.863281 0.789062 -4.144531 1.03125 -4.375 C 1.28125 -4.613281 1.570312 -4.800781 1.90625 -4.9375 C 2.238281 -5.082031 2.585938 -5.15625 2.953125 -5.15625 Z M 2.90625 -4.046875 C 2.519531 -4.046875 2.179688 -3.894531 1.890625 -3.59375 C 1.609375 -3.289062 1.46875 -2.929688 1.46875 -2.515625 C 1.46875 -2.097656 1.609375 -1.738281 1.890625 -1.4375 C 2.179688 -1.132812 2.523438 -0.984375 2.921875 -0.984375 C 3.328125 -0.984375 3.671875 -1.128906 3.953125 -1.421875 C 4.242188 -1.722656 4.390625 -2.085938 4.390625 -2.515625 C 4.390625 -2.941406 4.242188 -3.300781 3.953125 -3.59375 C 3.671875 -3.894531 3.320312 -4.046875 2.90625 -4.046875 Z M 2.90625 -4.046875 "/></g></g></g><g fill="#37548e" fill-opacity="1"><g transform="translate(186.358875, 76.015146)"><g><path d="M 5.5625 -6.71875 C 5.5625 -6.71875 5.5625 -4.476562 5.5625 0 C 5.5625 0 5.1875 0 4.4375 0 C 4.4375 0 4.4375 -0.21875 4.4375 -0.65625 C 4.195312 -0.382812 3.945312 -0.1875 3.6875 -0.0625 C 3.425781 0.0625 3.125 0.125 2.78125 0.125 C 2.3125 0.125 1.882812 0.0078125 1.5 -0.21875 C 1.113281 -0.457031 0.804688 -0.78125 0.578125 -1.1875 C 0.359375 -1.59375 0.25 -2.039062 0.25 -2.53125 C 0.25 -3.019531 0.359375 -3.472656 0.578125 -3.890625 C 0.804688 -4.304688 1.113281 -4.628906 1.5 -4.859375 C 1.882812 -5.097656 2.3125 -5.21875 2.78125 -5.21875 C 3.09375 -5.21875 3.382812 -5.160156 3.65625 -5.046875 C 3.9375 -4.941406 4.164062 -4.789062 4.34375 -4.59375 L 4.34375 -6.71875 Z M 2.921875 -4.109375 C 2.515625 -4.109375 2.171875 -3.957031 1.890625 -3.65625 C 1.609375 -3.363281 1.46875 -3 1.46875 -2.5625 C 1.46875 -2.125 1.613281 -1.75 1.90625 -1.4375 C 2.195312 -1.132812 2.550781 -0.984375 2.96875 -0.984375 C 3.382812 -0.984375 3.734375 -1.132812 4.015625 -1.4375 C 4.296875 -1.738281 4.4375 -2.101562 4.4375 -2.53125 C 4.4375 -2.988281 4.289062 -3.363281 4 -3.65625 C 3.71875 -3.957031 3.359375 -4.109375 2.921875 -4.109375 Z M 2.921875 -4.109375 "/></g></g></g><g fill="#37548e" fill-opacity="1"><g transform="translate(194.605245, 76.015146)"><g><path d="M 0.5 0 C 0.5 0 0.5 -1.679688 0.5 -5.046875 C 0.5 -5.046875 0.898438 -5.046875 1.703125 -5.046875 C 1.703125 -5.046875 1.703125 -3.363281 1.703125 0 C 1.703125 0 1.300781 0 0.5 0 Z M 0.5 -5.578125 C 0.5 -5.578125 0.5 -5.957031 0.5 -6.71875 C 0.5 -6.71875 0.898438 -6.71875 1.703125 -6.71875 C 1.703125 -6.71875 1.703125 -6.335938 1.703125 -5.578125 C 1.703125 -5.578125 1.300781 -5.578125 0.5 -5.578125 Z M 0.5 -5.578125 "/></g></g></g><g fill="#37548e" fill-opacity="1"><g transform="translate(199.000943, 76.015146)"><g><path d="M 0.5 0 C 0.5 0 0.5 -1.679688 0.5 -5.046875 C 0.5 -5.046875 0.867188 -5.046875 1.609375 -5.046875 C 1.609375 -5.046875 1.609375 -4.882812 1.609375 -4.5625 C 1.828125 -4.769531 2.046875 -4.921875 2.265625 -5.015625 C 2.484375 -5.109375 2.738281 -5.15625 3.03125 -5.15625 C 3.757812 -5.15625 4.296875 -4.894531 4.640625 -4.375 C 4.753906 -4.1875 4.835938 -3.96875 4.890625 -3.71875 C 4.941406 -3.476562 4.96875 -3.140625 4.96875 -2.703125 L 4.96875 0 L 3.75 0 C 3.75 0 3.75 -0.820312 3.75 -2.46875 C 3.75 -3.113281 3.664062 -3.539062 3.5 -3.75 C 3.332031 -3.945312 3.097656 -4.046875 2.796875 -4.046875 C 2.378906 -4.046875 2.078125 -3.882812 1.890625 -3.5625 C 1.816406 -3.445312 1.765625 -3.300781 1.734375 -3.125 C 1.710938 -2.957031 1.703125 -2.707031 1.703125 -2.375 L 1.703125 0 C 1.703125 0 1.300781 0 0.5 0 Z M 0.5 0 "/></g></g></g><g fill="#37548e" fill-opacity="1"><g transform="translate(206.639538, 76.015146)"><g><path d="M 4.375 -5.046875 C 4.375 -5.046875 4.757812 -5.046875 5.53125 -5.046875 C 5.53125 -5.046875 5.53125 -3.679688 5.53125 -0.953125 C 5.53125 -0.453125 5.488281 -0.0390625 5.40625 0.28125 C 5.320312 0.613281 5.179688 0.898438 4.984375 1.140625 C 4.503906 1.722656 3.816406 2.015625 2.921875 2.015625 C 2.304688 2.015625 1.769531 1.875 1.3125 1.59375 C 0.863281 1.3125 0.539062 0.914062 0.34375 0.40625 L 1.703125 0.40625 C 1.878906 0.601562 2.0625 0.742188 2.25 0.828125 C 2.445312 0.910156 2.6875 0.953125 2.96875 0.953125 C 3.425781 0.953125 3.769531 0.816406 4 0.546875 C 4.226562 0.273438 4.351562 -0.128906 4.375 -0.671875 C 4.144531 -0.390625 3.898438 -0.1875 3.640625 -0.0625 C 3.390625 0.0625 3.082031 0.125 2.71875 0.125 C 2.25 0.125 1.828125 0.0078125 1.453125 -0.21875 C 1.078125 -0.445312 0.78125 -0.765625 0.5625 -1.171875 C 0.351562 -1.578125 0.25 -2.035156 0.25 -2.546875 C 0.25 -3.296875 0.484375 -3.914062 0.953125 -4.40625 C 1.429688 -4.90625 2.023438 -5.15625 2.734375 -5.15625 C 3.453125 -5.15625 4 -4.90625 4.375 -4.40625 Z M 2.859375 -4.046875 C 2.441406 -4.046875 2.101562 -3.90625 1.84375 -3.625 C 1.59375 -3.34375 1.46875 -2.96875 1.46875 -2.5 C 1.46875 -2.039062 1.597656 -1.671875 1.859375 -1.390625 C 2.117188 -1.117188 2.460938 -0.984375 2.890625 -0.984375 C 3.328125 -0.984375 3.675781 -1.125 3.9375 -1.40625 C 4.195312 -1.6875 4.328125 -2.054688 4.328125 -2.515625 C 4.328125 -2.972656 4.191406 -3.34375 3.921875 -3.625 C 3.648438 -3.90625 3.296875 -4.046875 2.859375 -4.046875 Z M 2.859375 -4.046875 "/></g></g></g><g fill="#37548e" fill-opacity="1"><g transform="translate(214.868159, 76.015146)"><g/></g></g><g fill="#37548e" fill-opacity="1"><g transform="translate(219.618758, 76.015146)"><g><path d="M 1.3125 0 C 1.3125 0 1.3125 -1.84375 1.3125 -5.53125 C 1.3125 -5.53125 0.894531 -5.53125 0.0625 -5.53125 C 0.0625 -5.53125 0.0625 -5.925781 0.0625 -6.71875 C 0.0625 -6.71875 1.304688 -6.71875 3.796875 -6.71875 C 3.796875 -6.71875 3.796875 -6.320312 3.796875 -5.53125 C 3.796875 -5.53125 3.378906 -5.53125 2.546875 -5.53125 C 2.546875 -5.53125 2.546875 -3.6875 2.546875 0 C 2.546875 0 2.132812 0 1.3125 0 Z M 1.3125 0 "/></g></g></g><g fill="#37548e" fill-opacity="1"><g transform="translate(225.686919, 76.015146)"><g><path d="M 0.5 0 C 0.5 0 0.5 -1.679688 0.5 -5.046875 C 0.5 -5.046875 0.863281 -5.046875 1.59375 -5.046875 C 1.59375 -5.046875 1.59375 -4.878906 1.59375 -4.546875 C 1.757812 -4.773438 1.914062 -4.929688 2.0625 -5.015625 C 2.21875 -5.109375 2.425781 -5.15625 2.6875 -5.15625 L 2.78125 -5.15625 C 2.78125 -5.15625 2.78125 -4.765625 2.78125 -3.984375 C 2.0625 -3.972656 1.703125 -3.578125 1.703125 -2.796875 C 1.703125 -2.796875 1.703125 -1.863281 1.703125 0 C 1.703125 0 1.300781 0 0.5 0 Z M 0.5 0 "/></g></g></g><g fill="#37548e" fill-opacity="1"><g transform="translate(230.890015, 76.015146)"><g><path d="M 5.578125 -5.046875 C 5.578125 -5.046875 5.578125 -3.363281 5.578125 0 C 5.578125 0 5.207031 0 4.46875 0 C 4.46875 0 4.46875 -0.21875 4.46875 -0.65625 C 4.226562 -0.375 3.976562 -0.171875 3.71875 -0.046875 C 3.457031 0.0664062 3.148438 0.125 2.796875 0.125 C 2.304688 0.125 1.867188 0.015625 1.484375 -0.203125 C 1.097656 -0.429688 0.796875 -0.742188 0.578125 -1.140625 C 0.359375 -1.546875 0.25 -2 0.25 -2.5 C 0.25 -3.007812 0.359375 -3.460938 0.578125 -3.859375 C 0.796875 -4.265625 1.097656 -4.582031 1.484375 -4.8125 C 1.878906 -5.039062 2.320312 -5.15625 2.8125 -5.15625 C 3.175781 -5.15625 3.488281 -5.09375 3.75 -4.96875 C 4.019531 -4.84375 4.257812 -4.640625 4.46875 -4.359375 L 4.46875 -5.046875 Z M 2.921875 -4.046875 C 2.503906 -4.046875 2.15625 -3.894531 1.875 -3.59375 C 1.601562 -3.300781 1.46875 -2.925781 1.46875 -2.46875 C 1.46875 -2.03125 1.601562 -1.671875 1.875 -1.390625 C 2.15625 -1.117188 2.519531 -0.984375 2.96875 -0.984375 C 3.40625 -0.984375 3.753906 -1.125 4.015625 -1.40625 C 4.285156 -1.6875 4.421875 -2.050781 4.421875 -2.5 C 4.421875 -2.957031 4.28125 -3.328125 4 -3.609375 C 3.726562 -3.898438 3.367188 -4.046875 2.921875 -4.046875 Z M 2.921875 -4.046875 "/></g></g></g><g fill="#37548e" fill-opacity="1"><g transform="translate(239.158558, 76.015146)"><g><path d="M 0.5 0 C 0.5 0 0.5 -1.679688 0.5 -5.046875 C 0.5 -5.046875 0.898438 -5.046875 1.703125 -5.046875 C 1.703125 -5.046875 1.703125 -3.363281 1.703125 0 C 1.703125 0 1.300781 0 0.5 0 Z M 0.5 -5.578125 C 0.5 -5.578125 0.5 -5.957031 0.5 -6.71875 C 0.5 -6.71875 0.898438 -6.71875 1.703125 -6.71875 C 1.703125 -6.71875 1.703125 -6.335938 1.703125 -5.578125 C 1.703125 -5.578125 1.300781 -5.578125 0.5 -5.578125 Z M 0.5 -5.578125 "/></g></g></g><g fill="#37548e" fill-opacity="1"><g transform="translate(243.554256, 76.015146)"><g><path d="M 0.5 0 C 0.5 0 0.5 -1.679688 0.5 -5.046875 C 0.5 -5.046875 0.867188 -5.046875 1.609375 -5.046875 C 1.609375 -5.046875 1.609375 -4.882812 1.609375 -4.5625 C 1.828125 -4.769531 2.046875 -4.921875 2.265625 -5.015625 C 2.484375 -5.109375 2.738281 -5.15625 3.03125 -5.15625 C 3.757812 -5.15625 4.296875 -4.894531 4.640625 -4.375 C 4.753906 -4.1875 4.835938 -3.96875 4.890625 -3.71875 C 4.941406 -3.476562 4.96875 -3.140625 4.96875 -2.703125 L 4.96875 0 L 3.75 0 C 3.75 0 3.75 -0.820312 3.75 -2.46875 C 3.75 -3.113281 3.664062 -3.539062 3.5 -3.75 C 3.332031 -3.945312 3.097656 -4.046875 2.796875 -4.046875 C 2.378906 -4.046875 2.078125 -3.882812 1.890625 -3.5625 C 1.816406 -3.445312 1.765625 -3.300781 1.734375 -3.125 C 1.710938 -2.957031 1.703125 -2.707031 1.703125 -2.375 L 1.703125 0 C 1.703125 0 1.300781 0 0.5 0 Z M 0.5 0 "/></g></g></g><g fill="#37548e" fill-opacity="1"><g transform="translate(251.192851, 76.015146)"><g><path d="M 0.5 0 C 0.5 0 0.5 -1.679688 0.5 -5.046875 C 0.5 -5.046875 0.898438 -5.046875 1.703125 -5.046875 C 1.703125 -5.046875 1.703125 -3.363281 1.703125 0 C 1.703125 0 1.300781 0 0.5 0 Z M 0.5 -5.578125 C 0.5 -5.578125 0.5 -5.957031 0.5 -6.71875 C 0.5 -6.71875 0.898438 -6.71875 1.703125 -6.71875 C 1.703125 -6.71875 1.703125 -6.335938 1.703125 -5.578125 C 1.703125 -5.578125 1.300781 -5.578125 0.5 -5.578125 Z M 0.5 -5.578125 "/></g></g></g><g fill="#37548e" fill-opacity="1"><g transform="translate(255.588549, 76.015146)"><g><path d="M 0.5 0 C 0.5 0 0.5 -1.679688 0.5 -5.046875 C 0.5 -5.046875 0.867188 -5.046875 1.609375 -5.046875 C 1.609375 -5.046875 1.609375 -4.882812 1.609375 -4.5625 C 1.828125 -4.769531 2.046875 -4.921875 2.265625 -5.015625 C 2.484375 -5.109375 2.738281 -5.15625 3.03125 -5.15625 C 3.757812 -5.15625 4.296875 -4.894531 4.640625 -4.375 C 4.753906 -4.1875 4.835938 -3.96875 4.890625 -3.71875 C 4.941406 -3.476562 4.96875 -3.140625 4.96875 -2.703125 L 4.96875 0 L 3.75 0 C 3.75 0 3.75 -0.820312 3.75 -2.46875 C 3.75 -3.113281 3.664062 -3.539062 3.5 -3.75 C 3.332031 -3.945312 3.097656 -4.046875 2.796875 -4.046875 C 2.378906 -4.046875 2.078125 -3.882812 1.890625 -3.5625 C 1.816406 -3.445312 1.765625 -3.300781 1.734375 -3.125 C 1.710938 -2.957031 1.703125 -2.707031 1.703125 -2.375 L 1.703125 0 C 1.703125 0 1.300781 0 0.5 0 Z M 0.5 0 "/></g></g></g><g fill="#37548e" fill-opacity="1"><g transform="translate(263.227149, 76.015146)"><g><path d="M 4.375 -5.046875 C 4.375 -5.046875 4.757812 -5.046875 5.53125 -5.046875 C 5.53125 -5.046875 5.53125 -3.679688 5.53125 -0.953125 C 5.53125 -0.453125 5.488281 -0.0390625 5.40625 0.28125 C 5.320312 0.613281 5.179688 0.898438 4.984375 1.140625 C 4.503906 1.722656 3.816406 2.015625 2.921875 2.015625 C 2.304688 2.015625 1.769531 1.875 1.3125 1.59375 C 0.863281 1.3125 0.539062 0.914062 0.34375 0.40625 L 1.703125 0.40625 C 1.878906 0.601562 2.0625 0.742188 2.25 0.828125 C 2.445312 0.910156 2.6875 0.953125 2.96875 0.953125 C 3.425781 0.953125 3.769531 0.816406 4 0.546875 C 4.226562 0.273438 4.351562 -0.128906 4.375 -0.671875 C 4.144531 -0.390625 3.898438 -0.1875 3.640625 -0.0625 C 3.390625 0.0625 3.082031 0.125 2.71875 0.125 C 2.25 0.125 1.828125 0.0078125 1.453125 -0.21875 C 1.078125 -0.445312 0.78125 -0.765625 0.5625 -1.171875 C 0.351562 -1.578125 0.25 -2.035156 0.25 -2.546875 C 0.25 -3.296875 0.484375 -3.914062 0.953125 -4.40625 C 1.429688 -4.90625 2.023438 -5.15625 2.734375 -5.15625 C 3.453125 -5.15625 4 -4.90625 4.375 -4.40625 Z M 2.859375 -4.046875 C 2.441406 -4.046875 2.101562 -3.90625 1.84375 -3.625 C 1.59375 -3.34375 1.46875 -2.96875 1.46875 -2.5 C 1.46875 -2.039062 1.597656 -1.671875 1.859375 -1.390625 C 2.117188 -1.117188 2.460938 -0.984375 2.890625 -0.984375 C 3.328125 -0.984375 3.675781 -1.125 3.9375 -1.40625 C 4.195312 -1.6875 4.328125 -2.054688 4.328125 -2.515625 C 4.328125 -2.972656 4.191406 -3.34375 3.921875 -3.625 C 3.648438 -3.90625 3.296875 -4.046875 2.859375 -4.046875 Z M 2.859375 -4.046875 "/></g></g></g><g fill="#37548e" fill-opacity="1"><g transform="translate(271.455771, 76.015146)"><g/></g></g><g fill="#37548e" fill-opacity="1"><g transform="translate(276.20637, 76.015146)"><g><path d="M 0.171875 -1.921875 C 0.171875 -1.921875 0.601562 -1.921875 1.46875 -1.921875 C 1.519531 -1.359375 1.828125 -1.078125 2.390625 -1.078125 C 2.648438 -1.078125 2.863281 -1.148438 3.03125 -1.296875 C 3.207031 -1.453125 3.296875 -1.65625 3.296875 -1.90625 C 3.296875 -2.195312 3.179688 -2.429688 2.953125 -2.609375 C 2.859375 -2.679688 2.753906 -2.738281 2.640625 -2.78125 C 2.535156 -2.832031 2.265625 -2.9375 1.828125 -3.09375 C 1.367188 -3.269531 1.019531 -3.515625 0.78125 -3.828125 C 0.539062 -4.140625 0.421875 -4.503906 0.421875 -4.921875 C 0.421875 -5.460938 0.609375 -5.914062 0.984375 -6.28125 C 1.359375 -6.65625 1.820312 -6.84375 2.375 -6.84375 C 2.695312 -6.84375 3 -6.773438 3.28125 -6.640625 C 3.570312 -6.503906 3.804688 -6.316406 3.984375 -6.078125 C 4.109375 -5.910156 4.195312 -5.738281 4.25 -5.5625 C 4.3125 -5.382812 4.347656 -5.171875 4.359375 -4.921875 L 3.078125 -4.921875 C 3.054688 -5.148438 2.984375 -5.328125 2.859375 -5.453125 C 2.734375 -5.578125 2.566406 -5.640625 2.359375 -5.640625 C 2.160156 -5.640625 1.992188 -5.570312 1.859375 -5.4375 C 1.734375 -5.3125 1.671875 -5.148438 1.671875 -4.953125 C 1.671875 -4.703125 1.800781 -4.5 2.0625 -4.34375 C 2.125 -4.300781 2.367188 -4.203125 2.796875 -4.046875 C 3.128906 -3.921875 3.367188 -3.816406 3.515625 -3.734375 C 3.660156 -3.660156 3.796875 -3.5625 3.921875 -3.4375 C 4.328125 -3.070312 4.53125 -2.601562 4.53125 -2.03125 C 4.53125 -1.425781 4.320312 -0.914062 3.90625 -0.5 C 3.5 -0.0820312 2.992188 0.125 2.390625 0.125 C 2.015625 0.125 1.664062 0.0507812 1.34375 -0.09375 C 1.03125 -0.25 0.773438 -0.460938 0.578125 -0.734375 C 0.453125 -0.910156 0.359375 -1.085938 0.296875 -1.265625 C 0.234375 -1.441406 0.191406 -1.660156 0.171875 -1.921875 Z M 0.171875 -1.921875 "/></g></g></g><g fill="#37548e" fill-opacity="1"><g transform="translate(283.175095, 76.015146)"><g><path d="M 4.953125 -5.046875 C 4.953125 -5.046875 4.953125 -3.363281 4.953125 0 C 4.953125 0 4.582031 0 3.84375 0 C 3.84375 0 3.84375 -0.160156 3.84375 -0.484375 C 3.601562 -0.265625 3.375 -0.109375 3.15625 -0.015625 C 2.945312 0.078125 2.691406 0.125 2.390625 0.125 C 2.046875 0.125 1.738281 0.0546875 1.46875 -0.078125 C 1.207031 -0.222656 0.992188 -0.421875 0.828125 -0.671875 C 0.691406 -0.878906 0.597656 -1.101562 0.546875 -1.34375 C 0.492188 -1.59375 0.46875 -1.921875 0.46875 -2.328125 L 0.46875 -5.046875 L 1.6875 -5.046875 L 1.6875 -2.578125 C 1.6875 -2.222656 1.703125 -1.945312 1.734375 -1.75 C 1.773438 -1.550781 1.84375 -1.398438 1.9375 -1.296875 C 2.113281 -1.085938 2.347656 -0.984375 2.640625 -0.984375 C 2.847656 -0.984375 3.035156 -1.023438 3.203125 -1.109375 C 3.367188 -1.203125 3.492188 -1.320312 3.578125 -1.46875 C 3.640625 -1.582031 3.679688 -1.726562 3.703125 -1.90625 C 3.734375 -2.09375 3.75 -2.347656 3.75 -2.671875 L 3.75 -5.046875 Z M 4.953125 -5.046875 "/></g></g></g><g fill="#37548e" fill-opacity="1"><g transform="translate(290.822562, 76.015146)"><g><path d="M 0.5 1.6875 C 0.5 1.6875 0.5 -0.554688 0.5 -5.046875 C 0.5 -5.046875 0.863281 -5.046875 1.59375 -5.046875 C 1.59375 -5.046875 1.59375 -4.84375 1.59375 -4.4375 C 2 -4.914062 2.550781 -5.15625 3.25 -5.15625 C 3.726562 -5.15625 4.160156 -5.039062 4.546875 -4.8125 C 4.929688 -4.59375 5.226562 -4.28125 5.4375 -3.875 C 5.65625 -3.476562 5.765625 -3.03125 5.765625 -2.53125 C 5.765625 -2.03125 5.65625 -1.578125 5.4375 -1.171875 C 5.21875 -0.765625 4.914062 -0.445312 4.53125 -0.21875 C 4.15625 0.0078125 3.726562 0.125 3.25 0.125 C 2.9375 0.125 2.65625 0.078125 2.40625 -0.015625 C 2.164062 -0.117188 1.929688 -0.269531 1.703125 -0.46875 L 1.703125 1.6875 Z M 3.078125 -4.046875 C 2.660156 -4.046875 2.3125 -3.894531 2.03125 -3.59375 C 1.757812 -3.300781 1.625 -2.9375 1.625 -2.5 C 1.625 -2.070312 1.765625 -1.710938 2.046875 -1.421875 C 2.335938 -1.128906 2.691406 -0.984375 3.109375 -0.984375 C 3.515625 -0.984375 3.851562 -1.128906 4.125 -1.421875 C 4.40625 -1.710938 4.546875 -2.078125 4.546875 -2.515625 C 4.546875 -2.953125 4.40625 -3.316406 4.125 -3.609375 C 3.851562 -3.898438 3.503906 -4.046875 3.078125 -4.046875 Z M 3.078125 -4.046875 "/></g></g></g><g fill="#37548e" fill-opacity="1"><g transform="translate(299.042312, 76.015146)"><g><path d="M 5.46875 -1.984375 C 5.46875 -1.984375 4.164062 -1.984375 1.5625 -1.984375 C 1.632812 -1.671875 1.796875 -1.425781 2.046875 -1.25 C 2.296875 -1.070312 2.597656 -0.984375 2.953125 -0.984375 C 3.203125 -0.984375 3.410156 -1.019531 3.578125 -1.09375 C 3.742188 -1.175781 3.90625 -1.304688 4.0625 -1.484375 L 5.375 -1.484375 C 5.3125 -1.265625 5.179688 -1.035156 4.984375 -0.796875 C 4.460938 -0.179688 3.796875 0.125 2.984375 0.125 C 2.609375 0.125 2.25 0.0546875 1.90625 -0.078125 C 1.570312 -0.210938 1.28125 -0.394531 1.03125 -0.625 C 0.789062 -0.863281 0.597656 -1.144531 0.453125 -1.46875 C 0.316406 -1.789062 0.25 -2.132812 0.25 -2.5 C 0.25 -2.988281 0.363281 -3.4375 0.59375 -3.84375 C 0.832031 -4.25 1.15625 -4.566406 1.5625 -4.796875 C 1.976562 -5.035156 2.425781 -5.15625 2.90625 -5.15625 C 3.40625 -5.15625 3.851562 -5.035156 4.25 -4.796875 C 4.644531 -4.566406 4.953125 -4.242188 5.171875 -3.828125 C 5.398438 -3.421875 5.515625 -2.960938 5.515625 -2.453125 C 5.515625 -2.285156 5.5 -2.128906 5.46875 -1.984375 Z M 1.53125 -3.046875 L 4.328125 -3.046875 C 4.242188 -3.367188 4.082031 -3.613281 3.84375 -3.78125 C 3.601562 -3.957031 3.296875 -4.046875 2.921875 -4.046875 C 2.566406 -4.046875 2.269531 -3.957031 2.03125 -3.78125 C 1.789062 -3.613281 1.625 -3.367188 1.53125 -3.046875 Z M 1.53125 -3.046875 "/></g></g></g><g fill="#37548e" fill-opacity="1"><g transform="translate(307.009189, 76.015146)"><g><path d="M 0.5 0 C 0.5 0 0.5 -1.679688 0.5 -5.046875 C 0.5 -5.046875 0.863281 -5.046875 1.59375 -5.046875 C 1.59375 -5.046875 1.59375 -4.878906 1.59375 -4.546875 C 1.757812 -4.773438 1.914062 -4.929688 2.0625 -5.015625 C 2.21875 -5.109375 2.425781 -5.15625 2.6875 -5.15625 L 2.78125 -5.15625 C 2.78125 -5.15625 2.78125 -4.765625 2.78125 -3.984375 C 2.0625 -3.972656 1.703125 -3.578125 1.703125 -2.796875 C 1.703125 -2.796875 1.703125 -1.863281 1.703125 0 C 1.703125 0 1.300781 0 0.5 0 Z M 0.5 0 "/></g></g></g><g fill="#37548e" fill-opacity="1"><g transform="translate(312.212286, 76.015146)"><g><path d="M 2.0625 0 C 2.0625 0 1.382812 -1.679688 0.03125 -5.046875 C 0.03125 -5.046875 0.476562 -5.046875 1.375 -5.046875 C 1.375 -5.046875 1.757812 -3.929688 2.53125 -1.703125 C 2.53125 -1.703125 2.914062 -2.816406 3.6875 -5.046875 C 3.6875 -5.046875 4.140625 -5.046875 5.046875 -5.046875 C 5.046875 -5.046875 4.367188 -3.363281 3.015625 0 C 3.015625 0 2.695312 0 2.0625 0 Z M 2.0625 0 "/></g></g></g><g fill="#37548e" fill-opacity="1"><g transform="translate(319.487107, 76.015146)"><g><path d="M 0.5 0 C 0.5 0 0.5 -1.679688 0.5 -5.046875 C 0.5 -5.046875 0.898438 -5.046875 1.703125 -5.046875 C 1.703125 -5.046875 1.703125 -3.363281 1.703125 0 C 1.703125 0 1.300781 0 0.5 0 Z M 0.5 -5.578125 C 0.5 -5.578125 0.5 -5.957031 0.5 -6.71875 C 0.5 -6.71875 0.898438 -6.71875 1.703125 -6.71875 C 1.703125 -6.71875 1.703125 -6.335938 1.703125 -5.578125 C 1.703125 -5.578125 1.300781 -5.578125 0.5 -5.578125 Z M 0.5 -5.578125 "/></g></g></g><g fill="#37548e" fill-opacity="1"><g transform="translate(323.882806, 76.015146)"><g><path d="M 0.140625 -1.59375 C 0.140625 -1.59375 0.546875 -1.59375 1.359375 -1.59375 C 1.410156 -1.382812 1.488281 -1.226562 1.59375 -1.125 C 1.707031 -1.03125 1.851562 -0.984375 2.03125 -0.984375 C 2.1875 -0.984375 2.316406 -1.03125 2.421875 -1.125 C 2.523438 -1.21875 2.578125 -1.335938 2.578125 -1.484375 C 2.578125 -1.648438 2.5 -1.78125 2.34375 -1.875 C 2.28125 -1.914062 2.21875 -1.945312 2.15625 -1.96875 C 2.09375 -2 1.945312 -2.050781 1.71875 -2.125 C 1.21875 -2.289062 0.859375 -2.488281 0.640625 -2.71875 C 0.421875 -2.945312 0.3125 -3.25 0.3125 -3.625 C 0.3125 -4.050781 0.472656 -4.410156 0.796875 -4.703125 C 1.117188 -5.003906 1.519531 -5.15625 2 -5.15625 C 2.257812 -5.15625 2.503906 -5.101562 2.734375 -5 C 2.960938 -4.894531 3.160156 -4.75 3.328125 -4.5625 C 3.429688 -4.4375 3.503906 -4.300781 3.546875 -4.15625 C 3.597656 -4.019531 3.628906 -3.847656 3.640625 -3.640625 L 2.46875 -3.640625 C 2.414062 -3.910156 2.257812 -4.046875 2 -4.046875 C 1.863281 -4.046875 1.75 -4.003906 1.65625 -3.921875 C 1.570312 -3.835938 1.53125 -3.738281 1.53125 -3.625 C 1.53125 -3.46875 1.609375 -3.351562 1.765625 -3.28125 C 1.847656 -3.25 2.054688 -3.179688 2.390625 -3.078125 C 2.890625 -2.921875 3.242188 -2.726562 3.453125 -2.5 C 3.671875 -2.28125 3.78125 -1.976562 3.78125 -1.59375 C 3.78125 -1.113281 3.601562 -0.707031 3.25 -0.375 C 2.90625 -0.0390625 2.484375 0.125 1.984375 0.125 C 1.671875 0.125 1.375 0.0546875 1.09375 -0.078125 C 0.820312 -0.210938 0.609375 -0.390625 0.453125 -0.609375 C 0.359375 -0.742188 0.285156 -0.882812 0.234375 -1.03125 C 0.191406 -1.175781 0.160156 -1.363281 0.140625 -1.59375 Z M 0.140625 -1.59375 "/></g></g></g><g fill="#37548e" fill-opacity="1"><g transform="translate(330.070751, 76.015146)"><g><path d="M 2.953125 -5.15625 C 3.429688 -5.15625 3.875 -5.035156 4.28125 -4.796875 C 4.695312 -4.554688 5.019531 -4.234375 5.25 -3.828125 C 5.488281 -3.421875 5.609375 -2.984375 5.609375 -2.515625 C 5.609375 -2.035156 5.488281 -1.59375 5.25 -1.1875 C 5.007812 -0.789062 4.679688 -0.472656 4.265625 -0.234375 C 3.859375 0.00390625 3.414062 0.125 2.9375 0.125 C 2.457031 0.125 2.007812 0.00390625 1.59375 -0.234375 C 1.175781 -0.472656 0.847656 -0.789062 0.609375 -1.1875 C 0.367188 -1.59375 0.25 -2.035156 0.25 -2.515625 C 0.25 -2.867188 0.316406 -3.207031 0.453125 -3.53125 C 0.597656 -3.863281 0.789062 -4.144531 1.03125 -4.375 C 1.28125 -4.613281 1.570312 -4.800781 1.90625 -4.9375 C 2.238281 -5.082031 2.585938 -5.15625 2.953125 -5.15625 Z M 2.90625 -4.046875 C 2.519531 -4.046875 2.179688 -3.894531 1.890625 -3.59375 C 1.609375 -3.289062 1.46875 -2.929688 1.46875 -2.515625 C 1.46875 -2.097656 1.609375 -1.738281 1.890625 -1.4375 C 2.179688 -1.132812 2.523438 -0.984375 2.921875 -0.984375 C 3.328125 -0.984375 3.671875 -1.128906 3.953125 -1.421875 C 4.242188 -1.722656 4.390625 -2.085938 4.390625 -2.515625 C 4.390625 -2.941406 4.242188 -3.300781 3.953125 -3.59375 C 3.671875 -3.894531 3.320312 -4.046875 2.90625 -4.046875 Z M 2.90625 -4.046875 "/></g></g></g><g fill="#37548e" fill-opacity="1"><g transform="translate(338.135226, 76.015146)"><g><path d="M 0.5 0 C 0.5 0 0.5 -1.679688 0.5 -5.046875 C 0.5 -5.046875 0.863281 -5.046875 1.59375 -5.046875 C 1.59375 -5.046875 1.59375 -4.878906 1.59375 -4.546875 C 1.757812 -4.773438 1.914062 -4.929688 2.0625 -5.015625 C 2.21875 -5.109375 2.425781 -5.15625 2.6875 -5.15625 L 2.78125 -5.15625 C 2.78125 -5.15625 2.78125 -4.765625 2.78125 -3.984375 C 2.0625 -3.972656 1.703125 -3.578125 1.703125 -2.796875 C 1.703125 -2.796875 1.703125 -1.863281 1.703125 0 C 1.703125 0 1.300781 0 0.5 0 Z M 0.5 0 "/></g></g></g></svg>